<?xml version="1.0" encoding="utf-8"?>
<!-- Generator: Adobe Illustrator 22.0.1, SVG Export Plug-In . SVG Version: 6.00 Build 0)  -->
<svg version="1.1" id="Слой_1" xmlns="http://www.w3.org/2000/svg" xmlns:xlink="http://www.w3.org/1999/xlink" x="0px" y="0px"
	 viewBox="0 0 64 512" style="enable-background:new 0 0 64 512;" xml:space="preserve">
<style type="text/css">
	.st0{fill:#FFFFFF;}
</style>
<path class="st0" d="M32,224c17.7,0,32,14.3,32,32s-14.3,32-32,32S0,273.7,0,256S14.3,224,32,224z M0,136c0,17.7,14.3,32,32,32
	s32-14.3,32-32s-14.3-32-32-32S0,118.3,0,136z M0,376c0,17.7,14.3,32,32,32s32-14.3,32-32s-14.3-32-32-32S0,358.3,0,376z"/>
</svg>
