<?xml version="1.0" encoding="utf-8"?>
<!-- Generator: Adobe Illustrator 22.0.1, SVG Export Plug-In . SVG Version: 6.00 Build 0)  -->
<svg version="1.1" id="Слой_1" xmlns="http://www.w3.org/2000/svg" xmlns:xlink="http://www.w3.org/1999/xlink" x="0px" y="0px"
	 viewBox="0 0 512 512" style="enable-background:new 0 0 512 512;" xml:space="preserve">
<style type="text/css">
	.st0{fill:#FFFAFA;}
</style>
<path class="st0" d="M149.1,512c-33.1,0-66.2-12.6-91.3-37.8c-50.4-50.4-50.4-132.3,0-182.7L319.8,29.5
	c39.3-39.3,103.3-39.3,142.7,0c39.3,39.3,39.3,103.3,0,142.7L239.9,394.8c-28.3,28.3-74.3,28.3-102.6,0
	c-28.3-28.3-28.3-74.3,0-102.6l170.3-170.3c4.7-4.7,12.3-4.7,17,0l5.7,5.7c4.7,4.7,4.7,12.3,0,17L159.9,314.8
	c-15.8,15.8-15.8,41.6,0,57.4c15.8,15.8,41.6,15.8,57.4,0l222.6-222.6c26.9-26.9,26.9-70.5,0-97.4c-26.9-26.9-70.5-26.8-97.4,0
	L80.4,314.2c-37.9,37.9-37.9,99.5,0,137.4c37.9,37.9,99.5,37.9,137.4,0l217.7-217.7c4.7-4.7,12.3-4.7,17,0l5.7,5.7
	c4.7,4.7,4.7,12.3,0,17L240.4,474.2C215.3,499.4,182.2,512,149.1,512z"/>
</svg>
